<svg width="128" height="35" viewBox="0 0 128 35" fill="none" xmlns="http://www.w3.org/2000/svg">
<path d="M26.1175 8.2963L34 8.29631V17.963M3 13.6667L12.4572 4L17.7111 5.07407L19.8127 8.2963V13.6667L12.4572 22.2593L3 13.6667ZM28.2191 23.3333L18.7619 33L13.508 31.9259L11.4064 28.7037L11.4064 23.3333L18.7619 14.7407L28.2191 23.3333Z" stroke="#FFF" stroke-width="3"/>
<path d="M42.2373 27V6.24121H50.0679C51.4461 6.24121 52.4987 6.30729 53.2256 6.43945C54.2451 6.60938 55.0994 6.93506 55.7886 7.4165C56.4777 7.88851 57.0299 8.55404 57.4453 9.41309C57.8701 10.2721 58.0825 11.2161 58.0825 12.2451C58.0825 14.0104 57.5208 15.5067 56.3975 16.7339C55.2741 17.9517 53.2445 18.5605 50.3086 18.5605H44.9844V27H42.2373ZM44.9844 16.1108H50.3511C52.1258 16.1108 53.3861 15.7804 54.1318 15.1196C54.8776 14.4588 55.2505 13.529 55.2505 12.3301C55.2505 11.4616 55.0286 10.7205 54.585 10.1069C54.1507 9.48389 53.5749 9.07324 52.8574 8.875C52.3949 8.75228 51.5405 8.69092 50.2944 8.69092H44.9844V16.1108ZM61.6367 27V6.24121H76.6465V8.69092H64.3838V15.0488H75.8677V17.4844H64.3838V24.5503H77.1279V27H61.6367ZM80.9229 27V6.24121H88.0737C89.688 6.24121 90.9199 6.34033 91.7695 6.53857C92.959 6.81234 93.9738 7.30794 94.814 8.02539C95.909 8.95052 96.7256 10.1353 97.2637 11.5796C97.8112 13.0145 98.085 14.6571 98.085 16.5073C98.085 18.0838 97.9009 19.481 97.5327 20.6987C97.1646 21.9165 96.6925 22.9266 96.1167 23.729C95.5409 24.522 94.9084 25.1497 94.2192 25.6123C93.5396 26.0654 92.7135 26.41 91.7412 26.646C90.7783 26.882 89.6691 27 88.4136 27H80.9229ZM83.6699 24.5503H88.1021C89.4709 24.5503 90.5423 24.4229 91.3164 24.168C92.0999 23.9131 92.723 23.5544 93.1855 23.0918C93.8369 22.4404 94.342 21.5672 94.7007 20.4722C95.0688 19.3677 95.2529 18.0319 95.2529 16.4648C95.2529 14.2936 94.8942 12.6274 94.1768 11.4663C93.4688 10.2957 92.605 9.51221 91.5854 9.11572C90.8491 8.83252 89.6644 8.69092 88.0312 8.69092H83.6699V24.5503ZM102.347 27V6.24121H105.094V27H102.347ZM107.671 27L115.644 6.24121H118.603L127.099 27H123.97L121.548 20.7129H112.868L110.588 27H107.671ZM113.661 18.4756H120.699L118.532 12.7266C117.871 10.9801 117.381 9.54525 117.06 8.42188C116.795 9.75293 116.422 11.0745 115.941 12.3867L113.661 18.4756Z" fill="#FFF"/>
</svg>
